<mxfile host="app.diagrams.net" modified="2023-05-28T06:12:50.109Z" agent="Mozilla/5.0 (Macintosh; Intel Mac OS X 10_15_7) AppleWebKit/605.1.15 (KHTML, like Gecko) Version/15.1 Safari/605.1.15" etag="gJnBatSzuBteqZNp09aK" version="21.3.4" type="github">
  <diagram name="Page-1" id="mGbS7eCVnr-DPzJ4NJ7e">
    <mxGraphModel dx="741" dy="448" grid="1" gridSize="10" guides="1" tooltips="1" connect="1" arrows="1" fold="1" page="1" pageScale="1" pageWidth="827" pageHeight="1169" math="0" shadow="0">
      <root>
        <mxCell id="0" />
        <mxCell id="1" parent="0" />
        <mxCell id="hRtDUjv6dtXBaExhfv9p-2" value="X" style="text;html=1;strokeColor=none;fillColor=none;align=center;verticalAlign=middle;whiteSpace=wrap;rounded=0;fontSize=27;" parent="1" vertex="1">
          <mxGeometry x="211" y="631" width="30" height="30" as="geometry" />
        </mxCell>
        <mxCell id="hRtDUjv6dtXBaExhfv9p-3" value="" style="endArrow=classic;html=1;rounded=0;exitX=0;exitY=1;exitDx=0;exitDy=0;" parent="1" target="hRtDUjv6dtXBaExhfv9p-5" edge="1" source="hRtDUjv6dtXBaExhfv9p-2">
          <mxGeometry width="50" height="50" relative="1" as="geometry">
            <mxPoint x="210" y="650" as="sourcePoint" />
            <mxPoint x="256" y="646" as="targetPoint" />
          </mxGeometry>
        </mxCell>
        <mxCell id="hRtDUjv6dtXBaExhfv9p-5" value="A" style="text;html=1;strokeColor=none;fillColor=none;align=center;verticalAlign=middle;whiteSpace=wrap;rounded=0;fontSize=27;" parent="1" vertex="1">
          <mxGeometry x="156" y="689" width="30" height="30" as="geometry" />
        </mxCell>
        <mxCell id="hRtDUjv6dtXBaExhfv9p-6" value="Y" style="text;html=1;strokeColor=none;fillColor=none;align=center;verticalAlign=middle;whiteSpace=wrap;rounded=0;fontSize=27;" parent="1" vertex="1">
          <mxGeometry x="265" y="689" width="30" height="30" as="geometry" />
        </mxCell>
        <mxCell id="hRtDUjv6dtXBaExhfv9p-7" value="" style="endArrow=classic;html=1;rounded=0;exitX=1;exitY=1;exitDx=0;exitDy=0;" parent="1" source="hRtDUjv6dtXBaExhfv9p-2" edge="1">
          <mxGeometry width="50" height="50" relative="1" as="geometry">
            <mxPoint x="214" y="711" as="sourcePoint" />
            <mxPoint x="270" y="690" as="targetPoint" />
          </mxGeometry>
        </mxCell>
        <mxCell id="zWAzvw5cGcNOguQh8uS0-29" value="V" style="text;html=1;strokeColor=none;fillColor=none;align=center;verticalAlign=middle;whiteSpace=wrap;rounded=0;fontSize=27;" vertex="1" parent="1">
          <mxGeometry x="434" y="631" width="30" height="30" as="geometry" />
        </mxCell>
        <mxCell id="zWAzvw5cGcNOguQh8uS0-30" value="" style="endArrow=classic;html=1;rounded=0;exitX=0;exitY=1;exitDx=0;exitDy=0;" edge="1" parent="1" source="zWAzvw5cGcNOguQh8uS0-29" target="zWAzvw5cGcNOguQh8uS0-31">
          <mxGeometry width="50" height="50" relative="1" as="geometry">
            <mxPoint x="454" y="650" as="sourcePoint" />
            <mxPoint x="500" y="646" as="targetPoint" />
          </mxGeometry>
        </mxCell>
        <mxCell id="zWAzvw5cGcNOguQh8uS0-31" value="A" style="text;html=1;strokeColor=none;fillColor=none;align=center;verticalAlign=middle;whiteSpace=wrap;rounded=0;fontSize=27;" vertex="1" parent="1">
          <mxGeometry x="400" y="689" width="30" height="30" as="geometry" />
        </mxCell>
        <mxCell id="zWAzvw5cGcNOguQh8uS0-32" value="Y" style="text;html=1;strokeColor=none;fillColor=none;align=center;verticalAlign=middle;whiteSpace=wrap;rounded=0;fontSize=27;" vertex="1" parent="1">
          <mxGeometry x="539" y="689" width="30" height="30" as="geometry" />
        </mxCell>
        <mxCell id="zWAzvw5cGcNOguQh8uS0-33" value="" style="endArrow=classic;html=1;rounded=0;entryX=0.25;entryY=0;entryDx=0;entryDy=0;exitX=1;exitY=1;exitDx=0;exitDy=0;" edge="1" parent="1" source="zWAzvw5cGcNOguQh8uS0-34" target="zWAzvw5cGcNOguQh8uS0-32">
          <mxGeometry width="50" height="50" relative="1" as="geometry">
            <mxPoint x="458" y="711" as="sourcePoint" />
            <mxPoint x="457" y="671" as="targetPoint" />
          </mxGeometry>
        </mxCell>
        <mxCell id="zWAzvw5cGcNOguQh8uS0-34" value="W" style="text;html=1;strokeColor=none;fillColor=none;align=center;verticalAlign=middle;whiteSpace=wrap;rounded=0;fontSize=27;" vertex="1" parent="1">
          <mxGeometry x="502" y="631" width="30" height="30" as="geometry" />
        </mxCell>
        <mxCell id="zWAzvw5cGcNOguQh8uS0-35" value="" style="endArrow=classic;html=1;rounded=0;exitX=1;exitY=0.5;exitDx=0;exitDy=0;entryX=0;entryY=0.5;entryDx=0;entryDy=0;" edge="1" parent="1" source="zWAzvw5cGcNOguQh8uS0-29" target="zWAzvw5cGcNOguQh8uS0-34">
          <mxGeometry width="50" height="50" relative="1" as="geometry">
            <mxPoint x="460" y="671" as="sourcePoint" />
            <mxPoint x="437" y="699" as="targetPoint" />
          </mxGeometry>
        </mxCell>
      </root>
    </mxGraphModel>
  </diagram>
</mxfile>
